<svg xmlns="http://www.w3.org/2000/svg" width="256" height="85" viewBox="0 0 256 85"><g><g><path fill="#766458" d="M227.06 67.831h28.922v1.95H227.06zm-227.03 0h28.922v1.95H.03zm154.65 11.612v.001zm0 .001c-2.292.888-3.018 1.776-3.018 2.55 0 .803 1.016.974 1.656-.144zm-38.925-.001v.001zm0 .001c-2.291.888-3.018 1.776-3.018 2.55 0 .803 1.016.974 1.654-.144zm45.338-14.909c-.795.005-1.812.554-2.522 1.772l-4.21 7.262c-.694 1.177-.318 1.636.349 1.636 1.276 0 3.108-1.404 4.936-4.304l2.292-3.964c.833-1.517.178-2.408-.845-2.402zm-41.445 1.772l-4.212 7.262c-.696 1.177-.318 1.636.349 1.636 1.278 0 3.108-1.404 4.938-4.304l2.292-3.964c.833-1.517.178-2.408-.845-2.402-.795.005-1.812.554-2.522 1.772zm54.925-1.972c-.752.044-1.77.678-2.532 1.97l-1.948 3.355c1.133.402 3.079.46 4.53-1.978l.435-.746c1.012-1.743.483-2.659-.485-2.602zm11.709-.405c-.766-.07-1.844.536-2.772 2.094l-1.452 2.44-2.295 3.93c-1.803 3.1 1.656 3.56 3.078 1.148l.03-.056a1.959 1.959 0 0 1-.289-1.005c0-.976.783-1.78 1.77-1.78h.148l2.208-3.731c1.029-1.744.559-2.95-.426-3.041zm-50.158 0c-.765-.07-1.843.536-2.772 2.094l-1.454 2.44-2.295 3.93c-1.803 3.1 1.658 3.56 3.081 1.148l.029-.056a1.95 1.95 0 0 1-.29-1.005c0-.976.784-1.78 1.771-1.78h.148l2.206-3.731c1.029-1.744.561-2.95-.424-3.041zm11.853-3.367c-.61.574-.61 1.175-.175 1.72l1.683 2.01c.988 1.176 1.482 2.239.437 4.046l-3.018 5.22c-.696 1.175-.321 1.635.346 1.635 1.336 0 3.458-1.979 5.634-4.474l.203-.23.008.004 2.896-4.937c1.278-2.179 3.542-3.442 5.167-3.442 1.887 0 3.164 1.634 3.164 2.868h1.772l-6.764 11.416c2.383-1.005 4.529-2.838 7.028-5.678l.175-.197 2.926-4.965c1.276-2.179 3.223-3.444 5.663-3.444 2.468 0 4.033 2.065 2.41 4.819l-.438.746c-2.263 3.873-5.923 4.247-7.867 3.443l-.29.518c-1.393 2.409-.291 3.555 1.567 3.555 2.119 0 4.907-1.977 7.083-4.473l.155-.178 1.237-2.09 1.482-2.55c1.741-2.985 3.541-3.903 5.864-3.903 2.849 0 4.527 2.953 2.699 6.08l-2.845 4.849c1.511-.03 3.194-.747 4.558-2.21l.199-.226 4.734-8.092h3.02l-5.893 10.152c-.378.631-1.132 1.75-.378 2.064.582.259 2.351-.889 4.644-2.953l5.37-9.265h3.02l-6.444 11.158c-.698 1.175-.32 1.634.347 1.634 1.336 0 3.455-1.976 5.631-4.472l.203-.229v-.002c2.729-3.155 5.456-7.055 6.706-8.748l2.264 1.205c-1.859 3.814-1.657 8.174-2.614 11.014a18.852 18.852 0 0 0 3.63-3.24l.203-.229c.434.116.957.575 1.13 1.034-2.264 2.61-5.312 5.02-8.388 5.42-.03 0-.061.027-.091.027-.288.03-.55.06-.84.06-2.759 0-3.31-2.412-3.31-2.412l1.89-.975s.404 1.09 1.42 1.09c2.871 0 2.236-5.564 3.426-8.66-1.075 1.405-2.586 3.496-4.298 5.448l.002.002c-2.498 2.869-5.372 5.506-7.868 5.506-1.917 0-2.874-1.263-2.584-2.868-1.451 1.376-3.308 2.868-4.964 2.868-1.727 0-2.474-1.392-1.661-3.465-1.182.545-2.412.853-3.357.853h-.668c-3.302 4.125-8.729 3.327-8.612-.578-2.105 1.827-4.546 3.19-7.004 3.19-2.432 0-3.954-1.357-4.09-3.225-2.507 2.393-4.917 3.841-7.377 4.599l-2.292 3.93c-2.176 3.67-6.616 3.069-6.616.2 0-2.238 2.551-3.873 6.616-5.106l.842-1.402c-1.017.631-2.034 1.004-2.874 1.004-1.732 0-2.669-1.036-2.619-2.422-1.638 1.427-3.312 2.422-4.842 2.422-2.44 0-3.341-2.036-2.061-4.246l3.193-5.479c.35-.601.202-1.204-.175-1.691l-.405-.489c-2.41 3.24-3.541 4.731-4.99 6.395-1.539 1.807-4.384 2.896-6.184 2.896h-.668c-3.273 4.091-8.631 3.341-8.61-.476-2.457 2.317-4.824 3.721-7.24 4.464l-2.292 3.93c-2.178 3.671-6.62 3.069-6.62.2 0-2.238 2.556-3.873 6.62-5.106l.843-1.404c-1.017.63-2.034 1.004-2.877 1.004-2.438 0-3.338-2.038-2.06-4.246l4.238-7.227c1.278-2.179 3.544-3.444 5.168-3.444 1.888 0 3.164 1.636 3.164 2.87h1.77l-6.763 11.414c2.382-1.005 4.528-2.836 7.025-5.676l.154-.176 1.238-2.092 1.484-2.553c1.74-2.982 3.54-3.9 5.86-3.9 2.847 0 4.53 2.954 2.7 6.08l-2.843 4.848c1.512-.029 3.193-.748 4.558-2.209l.203-.229-.002-.003c1.975-2.297 3.775-4.819 5.11-6.684l-.262-.344c-1.075-1.376-.931-3.07.783-4.59zm-45.878 3.77c-.753.044-1.772.678-2.536 1.97l-1.95 3.357c1.135.402 3.086.46 4.538-1.978l.438-.746c1.014-1.744.48-2.661-.49-2.604zm-18.301-8.242l-2.845 4.875h2.496l-.872 1.433H80.11l-6.472 11.158c-.698 1.175-.321 1.635.346 1.635 1.336 0 3.457-1.978 5.633-4.474l.17-.19L88.21 56.09h3.019l-4.818 8.289c1.508-1.548 2.903-2.265 4.21-2.265 1.684 0 2.93 1.635 1.624 3.9l-4.355 7.543c-.696 1.175-.316 1.635.35 1.635 1.336 0 3.454-1.978 5.631-4.472l.176-.2 2.93-4.965c1.277-2.178 3.221-3.441 5.66-3.441 2.468 0 4.035 2.065 2.41 4.818l-.437.747c-2.264 3.871-5.922 4.245-7.868 3.44l-.29.52c-1.394 2.409-.29 3.555 1.57 3.555 2.118 0 4.904-1.978 7.082-4.475l.203-.226c.407.172.929.63 1.126 1.033-2.496 2.868-5.893 5.508-9.316 5.508-2.423 0-3.944-1.348-4.09-3.205-1.905 1.835-3.897 3.205-5.693 3.205-2.438 0-3.339-2.038-2.061-4.248l3.92-6.74c1.307-2.21-.755-2.957-5.399 2.81l-4.588 7.887H76.16l.778-1.334c-1.315.984-2.63 1.621-3.853 1.621-2.438 0-3.339-2.038-2.062-4.246l6.069-10.383h-2.757l.87-1.434h2.729l2.845-4.877zM58.855 63.93c-.766-.07-1.846.536-2.774 2.094l-1.453 2.44-2.296 3.93c-1.803 3.1 1.659 3.56 3.082 1.148l.03-.056a1.941 1.941 0 0 1-.29-1.005c0-.976.783-1.78 1.771-1.78h.146l2.206-3.731c1.03-1.744.563-2.95-.422-3.04zm-4.521-7.836l-2.846 4.875h2.499l-.872 1.437H50.65l-6.476 11.163c-.697 1.176-.319 1.636.348 1.636 1.335 0 3.457-1.98 5.633-4.477l.156-.176 1.237-2.091 1.48-2.554c1.742-2.986 3.54-3.902 5.862-3.902 2.846 0 4.529 2.954 2.701 6.083l-2.845 4.848c1.511-.029 3.194-.744 4.558-2.208l.205-.228c.406.172.928.63 1.128 1.033-1.54 1.807-4.384 2.898-6.184 2.898h-.666c-3.269 4.086-8.616 3.342-8.61-.462-1.866 1.77-3.803 3.075-5.557 3.075-2.438 0-3.339-2.039-2.061-4.25l6.068-10.387H44.87l.87-1.436h2.73l2.845-4.877z"/></g><g><path fill="#81b3d3" d="M61.567.351h7.677L68.04 45.097H53.57l-1.968-18.474-1.967 18.474H35.102L33.96.351h7.616l.635 37.01h.824l4.76-37.01h7.552l4.888 37.01h.762zm32.26 37.01v7.736H73.011V.35h20.816v7.67h-13.2v10.804h10.535v7.67H80.627V37.36zm21.346 0v7.736H96.96V.35h7.616v37.01zm16.795-8.752l7.674-1.79v13.555c0 2.558-2.156 4.731-4.694 4.731h-11.42c-2.598 0-4.692-2.173-4.692-4.731V5.082c0-2.623 2.094-4.731 4.693-4.731h11.417c2.539 0 4.695 2.108 4.695 4.731v9.08l-7.674 1.79v-7.93h-5.52v29.346h5.52zM159.984.351c2.54 0 4.698 2.109 4.698 4.731v35.285c0 2.557-2.158 4.73-4.698 4.73H148.56c-2.6 0-4.696-2.173-4.696-4.73V5.082c0-2.621 2.096-4.73 4.696-4.73zm-2.982 7.67h-5.523v29.34h5.524zm31.902-7.67h7.548v44.747h-7.613v-21.99l-3.046 11.378h-7.423l-2.98-11.378v21.99h-7.615V.351h7.55l6.788 21.605zm32.789 37.01v7.736h-20.806V.35h20.806v7.671h-13.195v10.803h10.53v7.67h-10.53v10.867z"/></g></g></svg>